<svg xmlns="http://www.w3.org/2000/svg" viewBox="0 0 256 256">
  <defs>
    <linearGradient id="grad" x1="0%" y1="0%" x2="100%" y2="100%">
      <stop offset="0%" stop-color="#38BDF8"></stop>
      <stop offset="100%" stop-color="#7C3AED"></stop>
    </linearGradient>
  </defs>

  <!-- Background -->
  <rect width="256" height="256" rx="64" fill="#0F172A"></rect>

  <!-- P Shape -->
  <path d="M82 52
       H136
       C175 52 198 74 198 111
       C198 149 175 171 136 171
       H118
       V204
       H82
       Z

       M118 84
       V139
       H136
       C153 139 164 129 164 111
       C164 94 153 84 136 84
       Z" fill="url(#grad)"></path>

  <!-- AI Circuits -->
  <circle cx="54" cy="94" r="8" fill="#38BDF8"></circle>
  <circle cx="54" cy="128" r="8" fill="#60A5FA"></circle>
  <circle cx="54" cy="162" r="8" fill="#8B5CF6"></circle>

  <line x1="62" y1="94" x2="98" y2="94" stroke="#38BDF8" stroke-width="6" stroke-linecap="round"></line>

  <line x1="62" y1="128" x2="90" y2="128" stroke="#60A5FA" stroke-width="6" stroke-linecap="round"></line>

  <line x1="62" y1="162" x2="82" y2="162" stroke="#8B5CF6" stroke-width="6" stroke-linecap="round"></line>
</svg>